<?xml version="1.0" encoding="UTF-8"?>
<!DOCTYPE svg PUBLIC "-//W3C//DTD SVG 1.1//EN" "http://www.w3.org/Graphics/SVG/1.1/DTD/svg11.dtd">
<svg xmlns="http://www.w3.org/2000/svg" version="1.1" width="1200px" height="1200px" style="shape-rendering:geometricPrecision; text-rendering:geometricPrecision; image-rendering:optimizeQuality; fill-rule:evenodd; clip-rule:evenodd" xmlns:xlink="http://www.w3.org/1999/xlink">
<g><path style="opacity:1" fill="#d00000" d="M 19.5,19.5 C 406.167,19.5 792.833,19.5 1179.5,19.5C 1179.5,406.167 1179.5,792.833 1179.5,1179.5C 792.833,1179.5 406.167,1179.5 19.5,1179.5C 19.5,792.833 19.5,406.167 19.5,19.5 Z"/></g>
<g><path style="opacity:1" fill="#fefefe" d="M 357.5,252.5 C 381.836,252.333 406.169,252.5 430.5,253C 437.68,259.879 444.513,267.046 451,274.5C 451.167,364.835 451.667,455.169 452.5,545.5C 549.626,447.874 646.959,350.374 744.5,253C 777.738,252.171 810.905,252.338 844,253.5C 848.333,263.167 852.667,272.833 857,282.5C 858.405,286.072 858.738,289.739 858,293.5C 779.237,372.096 700.737,450.763 622.5,529.5C 706.713,653.221 791.546,776.555 877,899.5C 877.667,901.167 877.667,902.833 877,904.5C 871.039,915.588 865.206,926.755 859.5,938C 826.5,938.667 793.5,938.667 760.5,938C 689.609,834.107 619.109,729.94 549,625.5C 546.063,621.279 542.896,617.279 539.5,613.5C 510.237,641.385 481.071,669.385 452,697.5C 451.667,770.5 451.333,843.5 451,916.5C 443.833,923.667 436.667,930.833 429.5,938C 405.833,938.667 382.167,938.667 358.5,938C 351.364,931.865 344.531,925.365 338,918.5C 336.336,704.246 336.002,489.913 337,275.5C 344.041,267.962 350.874,260.296 357.5,252.5 Z"/></g>
</svg>
