<?xml version="1.0" encoding="UTF-8"?>
<!DOCTYPE svg PUBLIC "-//W3C//DTD SVG 1.1//EN" "http://www.w3.org/Graphics/SVG/1.1/DTD/svg11.dtd">
<svg xmlns="http://www.w3.org/2000/svg" version="1.1" width="2048px" height="2048px" style="shape-rendering:geometricPrecision; text-rendering:geometricPrecision; image-rendering:optimizeQuality; fill-rule:evenodd; clip-rule:evenodd" xmlns:xlink="http://www.w3.org/1999/xlink">
<g><path style="opacity:0.996" fill="#787878" d="M 975.5,7.5 C 1249.68,-1.28806 1490.02,83.2119 1696.5,261C 1856.77,404.104 1962.6,581.604 2014,793.5C 2064.17,1020.47 2041.5,1239.81 1946,1451.5C 1851.48,1649.29 1709.98,1802.13 1521.5,1910C 1316.85,2022.39 1098.85,2061.73 867.5,2028C 651.996,1992.67 466.496,1899.5 311,1748.5C 159.395,1598.72 63.3949,1417.39 23,1204.5C -20.3075,947.05 25.6925,707.05 161,484.5C 286.296,287.497 459.463,147.997 680.5,66C 776.156,32.302 874.489,12.802 975.5,7.5 Z"/></g>
<g><path style="opacity:0.8" fill="#fefefe" d="M 979.5,23.5 C 991.5,23.5 1003.5,23.5 1015.5,23.5C 1015.5,92.8333 1015.5,162.167 1015.5,231.5C 955.742,232.205 896.742,239.205 838.5,252.5C 827.816,207.098 816.816,161.765 805.5,116.5C 692.464,171.851 579.797,228.018 467.5,285C 493.75,320.173 519.75,355.506 545.5,391C 532.716,401.897 519.716,412.564 506.5,423C 493.7,434.132 481.2,445.632 469,457.5C 419.986,408.653 371.153,359.653 322.5,310.5C 505.321,133.965 724.321,38.2984 979.5,23.5 Z"/></g>
<g><path style="opacity:0.8" fill="#fefefe" d="M 1031.5,23.5 C 1282.44,28.386 1501.78,112.886 1689.5,277C 1701.34,288.012 1713.01,299.179 1724.5,310.5C 1675.85,359.653 1627.01,408.653 1578,457.5C 1425.65,311.944 1243.48,236.611 1031.5,231.5C 1031.5,162.167 1031.5,92.8333 1031.5,23.5 Z"/></g>
<g><path style="opacity:0.961" fill="#fe7e2b" d="M 822.5,253.5 C 822.5,254.833 822.5,256.167 822.5,257.5C 726.809,282.52 639.142,323.853 559.5,381.5C 537.354,351.901 515.187,322.235 493,292.5C 492.251,291.365 492.417,290.365 493.5,289.5C 593.5,239.5 693.5,189.5 793.5,139.5C 804.094,177.208 813.761,215.208 822.5,253.5 Z"/></g>
<g><path style="opacity:0.8" fill="#fefefe" d="M 983.5,247.5 C 994.167,247.5 1004.83,247.5 1015.5,247.5C 1015.5,316.833 1015.5,386.167 1015.5,455.5C 975.01,455.985 935.01,460.652 895.5,469.5C 894.833,469.167 894.167,468.833 893.5,468.5C 876.757,402.36 860.09,336.193 843.5,270C 843.645,269.228 843.978,268.561 844.5,268C 890.415,257.472 936.749,250.638 983.5,247.5 Z"/></g>
<g><path style="opacity:0.8" fill="#fefefe" d="M 1031.5,247.5 C 1239.18,252.289 1417.52,326.123 1566.5,469C 1517.65,518.014 1468.65,566.847 1419.5,615.5C 1392.37,590.174 1363.7,567.007 1333.5,546C 1351.15,517.677 1368.82,489.344 1386.5,461C 1334.33,431.413 1282,402.08 1229.5,373C 1228.22,372.316 1227.05,372.483 1226,373.5C 1214.85,409.446 1203.02,445.113 1190.5,480.5C 1138.79,464.326 1085.79,455.993 1031.5,455.5C 1031.5,386.167 1031.5,316.833 1031.5,247.5 Z"/></g>
<g><path style="opacity:1" fill="#e46918" d="M 822.5,253.5 C 824.611,259.606 826.278,265.939 827.5,272.5C 734.179,297.07 648.512,337.236 570.5,393C 569.748,393.671 569.414,394.504 569.5,395.5C 565.811,391.135 562.478,386.469 559.5,381.5C 639.142,323.853 726.809,282.52 822.5,257.5C 822.5,256.167 822.5,254.833 822.5,253.5 Z"/></g>
<g><path style="opacity:0.961" fill="#fe7e2b" d="M 827.5,272.5 C 844.633,339.365 861.299,406.365 877.5,473.5C 810.625,492.113 748.958,521.446 692.5,561.5C 651.512,506.205 610.512,450.871 569.5,395.5C 569.414,394.504 569.748,393.671 570.5,393C 648.512,337.236 734.179,297.07 827.5,272.5 Z"/></g>
<g><path style="opacity:0.8" fill="#fefefe" d="M 309.5,322.5 C 359.25,370.749 408.583,419.582 457.5,469C 369.396,559.922 305.896,666.089 267,787.5C 266.29,788.973 265.124,789.64 263.5,789.5C 263.665,793.182 263.499,796.848 263,800.5C 242.378,870.684 231.878,942.351 231.5,1015.5C 162.167,1015.5 92.8333,1015.5 23.5,1015.5C 28.3115,764.041 113.145,544.375 278,356.5C 288.706,345.297 299.206,333.963 309.5,322.5 Z"/></g>
<g><path style="opacity:0.8" fill="#fefefe" d="M 1735.5,322.5 C 1851.41,439.504 1933.58,577.504 1982,736.5C 2009,827.474 2022.83,920.474 2023.5,1015.5C 1954.17,1015.5 1884.83,1015.5 1815.5,1015.5C 1811.61,818.533 1745.45,646.2 1617,498.5C 1607.83,488.667 1598.67,478.833 1589.5,469C 1638.37,420.299 1687.03,371.465 1735.5,322.5 Z"/></g>
<g><path style="opacity:0.961" fill="#d3fe54" d="M 1319.5,537.5 C 1301.71,527.771 1283.71,518.271 1265.5,509C 1247.09,500.527 1228.25,493.027 1209,486.5C 1207.97,486.164 1207.47,485.497 1207.5,484.5C 1216.4,454.551 1226.07,424.885 1236.5,395.5C 1279.19,418.839 1321.52,442.673 1363.5,467C 1348.95,490.596 1334.29,514.096 1319.5,537.5 Z"/></g>
<g><path style="opacity:0.8" fill="#fefefe" d="M 554.5,404.5 C 557.755,406.926 560.588,409.926 563,413.5C 600.947,465.781 639.281,517.781 678,569.5C 678.684,570.784 678.517,571.951 677.5,573C 660.099,586.229 643.432,600.396 627.5,615.5C 578.347,566.847 529.347,518.014 480.5,469C 504.176,446.143 528.843,424.643 554.5,404.5 Z"/></g>
<g><path style="opacity:0.8" fill="#fefefe" d="M 992.5,471.5 C 1000.17,471.5 1007.83,471.5 1015.5,471.5C 1015.5,540.833 1015.5,610.167 1015.5,679.5C 992.81,679.295 970.477,681.961 948.5,687.5C 931.345,620.548 914.345,553.548 897.5,486.5C 910.019,483.096 922.686,480.262 935.5,478C 954.618,475.487 973.618,473.321 992.5,471.5 Z"/></g>
<g><path style="opacity:0.8" fill="#fefefe" d="M 1031.5,471.5 C 1084.35,472.397 1136.02,480.564 1186.5,496C 1164.87,561.731 1143.53,627.565 1122.5,693.5C 1092.8,684.961 1062.46,680.294 1031.5,679.5C 1031.5,610.167 1031.5,540.833 1031.5,471.5 Z"/></g>
<g><path style="opacity:1" fill="#e46918" d="M 877.5,473.5 C 879.435,478.573 880.768,483.906 881.5,489.5C 819.655,506.594 762.322,533.094 709.5,569C 706.638,570.735 704.304,572.902 702.5,575.5C 698.811,571.135 695.478,566.469 692.5,561.5C 748.958,521.446 810.625,492.113 877.5,473.5 Z"/></g>
<g><path style="opacity:0.8" fill="#fefefe" d="M 468.5,480.5 C 517.812,529.146 566.812,578.146 615.5,627.5C 553.464,692.194 508.797,767.527 481.5,853.5C 415.096,834.032 348.763,814.365 282.5,794.5C 310.383,703.723 353.217,621.057 411,546.5C 428.995,523.533 448.161,501.533 468.5,480.5 Z"/></g>
<g><path style="opacity:0.8" fill="#fefefe" d="M 1577.5,480.5 C 1703.49,610.524 1776.33,766.191 1796,947.5C 1797.94,970.131 1799.11,992.798 1799.5,1015.5C 1730.17,1015.5 1660.83,1015.5 1591.5,1015.5C 1587.47,865.298 1534.13,735.965 1431.5,627.5C 1480.19,578.479 1528.85,529.479 1577.5,480.5 Z"/></g>
<g><path style="opacity:1" fill="#bbe440" d="M 1207.5,484.5 C 1207.47,485.497 1207.97,486.164 1209,486.5C 1228.25,493.027 1247.09,500.527 1265.5,509C 1283.71,518.271 1301.71,527.771 1319.5,537.5C 1316.4,542.709 1313.07,547.709 1309.5,552.5C 1309.06,550.926 1308.06,549.759 1306.5,549C 1273.27,529.203 1238.27,513.37 1201.5,501.5C 1203.13,495.608 1205.13,489.941 1207.5,484.5 Z"/></g>
<g><path style="opacity:0.961" fill="#fe7e2b" d="M 881.5,489.5 C 898.768,555.907 915.435,622.573 931.5,689.5C 931.423,690.75 930.756,691.583 929.5,692C 892.022,702.909 857.355,719.409 825.5,741.5C 784.512,686.205 743.512,630.871 702.5,575.5C 704.304,572.902 706.638,570.735 709.5,569C 762.322,533.094 819.655,506.594 881.5,489.5 Z"/></g>
<g><path style="opacity:0.961" fill="#d3fe54" d="M 1201.5,501.5 C 1238.27,513.37 1273.27,529.203 1306.5,549C 1308.06,549.759 1309.06,550.926 1309.5,552.5C 1273.58,611.347 1236.91,669.68 1199.5,727.5C 1180.3,715.732 1159.96,706.399 1138.5,699.5C 1138.5,698.5 1138.5,697.5 1138.5,696.5C 1159.04,631.342 1180.04,566.342 1201.5,501.5 Z"/></g>
<g><path style="opacity:0.8" fill="#fefefe" d="M 1323.5,560.5 C 1345.73,574.215 1366.73,589.715 1386.5,607C 1393.98,613.317 1400.98,620.15 1407.5,627.5C 1358.85,676.653 1310.01,725.653 1261,774.5C 1246.17,760.349 1230.34,747.515 1213.5,736C 1250.81,677.864 1287.48,619.364 1323.5,560.5 Z"/></g>
<g><path style="opacity:0.8" fill="#fefefe" d="M 687.5,584.5 C 688.496,584.414 689.329,584.748 690,585.5C 730.333,640.167 770.667,694.833 811,749.5C 811.667,750.5 811.667,751.5 811,752.5C 802.37,759.461 794.037,766.795 786,774.5C 737.333,725.833 688.667,677.167 640,628.5C 639.333,627.833 639.333,627.167 640,626.5C 655.433,611.891 671.266,597.891 687.5,584.5 Z"/></g>
<g><path style="opacity:0.8" fill="#fefefe" d="M 626.5,639.5 C 676.25,687.749 725.583,736.582 774.5,786C 738.144,823.522 712.144,867.356 696.5,917.5C 629.607,898.112 562.94,878.112 496.5,857.5C 523.536,774.705 566.869,702.038 626.5,639.5 Z"/></g>
<g><path style="opacity:0.8" fill="#fefefe" d="M 1418.5,639.5 C 1423.07,642.563 1427.24,646.23 1431,650.5C 1523.7,754.019 1571.87,875.686 1575.5,1015.5C 1506.17,1015.5 1436.83,1015.5 1367.5,1015.5C 1364.55,926.803 1332.88,850.303 1272.5,786C 1321.37,737.299 1370.03,688.465 1418.5,639.5 Z"/></g>
<g><path style="opacity:1" fill="#e46918" d="M 931.5,689.5 C 933.456,695.312 935.123,701.312 936.5,707.5C 901.228,716.636 868.562,731.47 838.5,752C 836.937,752.759 835.937,753.926 835.5,755.5C 831.811,751.135 828.478,746.469 825.5,741.5C 857.355,719.409 892.022,702.909 929.5,692C 930.756,691.583 931.423,690.75 931.5,689.5 Z"/></g>
<g><path style="opacity:0.8" fill="#fefefe" d="M 996.5,695.5 C 1002.83,695.5 1009.17,695.5 1015.5,695.5C 1015.5,764.833 1015.5,834.167 1015.5,903.5C 1010.83,903.5 1006.17,903.5 1001.5,903.5C 985.485,837.441 969.152,771.441 952.5,705.5C 952.608,704.558 952.941,703.725 953.5,703C 955.878,702.489 958.212,701.822 960.5,701C 972.618,698.989 984.618,697.156 996.5,695.5 Z"/></g>
<g><path style="opacity:0.8" fill="#fefefe" d="M 1031.5,695.5 C 1059.99,696.395 1087.99,700.562 1115.5,708C 1116.06,708.725 1116.39,709.558 1116.5,710.5C 1095.57,774.802 1074.73,839.136 1054,903.5C 1053.16,904.624 1051.99,905.291 1050.5,905.5C 1044.24,904.107 1037.91,903.441 1031.5,903.5C 1031.5,834.167 1031.5,764.833 1031.5,695.5 Z"/></g>
<g><path style="opacity:1" fill="#bbe340" d="M 1138.5,696.5 C 1138.5,697.5 1138.5,698.5 1138.5,699.5C 1159.96,706.399 1180.3,715.732 1199.5,727.5C 1196.89,732.767 1193.89,737.767 1190.5,742.5C 1190.59,741.504 1190.25,740.671 1189.5,740C 1171.44,729.303 1152.44,720.803 1132.5,714.5C 1133.93,708.216 1135.93,702.216 1138.5,696.5 Z"/></g>
<g><path style="opacity:0.961" fill="#fe7e2b" d="M 936.5,707.5 C 953.147,773.423 969.481,839.423 985.5,905.5C 985.719,906.675 985.386,907.675 984.5,908.5C 975.319,912.26 966.319,916.26 957.5,920.5C 916.865,865.524 876.198,810.524 835.5,755.5C 835.937,753.926 836.937,752.759 838.5,752C 868.562,731.47 901.228,716.636 936.5,707.5 Z"/></g>
<g><path style="opacity:0.961" fill="#d3fd54" d="M 1132.5,714.5 C 1152.44,720.803 1171.44,729.303 1189.5,740C 1190.25,740.671 1190.59,741.504 1190.5,742.5C 1154.17,800.5 1117.83,858.5 1081.5,916.5C 1077.09,915.03 1072.75,913.363 1068.5,911.5C 1089.46,845.614 1110.8,779.947 1132.5,714.5 Z"/></g>
<g><path style="opacity:0.8" fill="#fefefe" d="M 1204.5,750.5 C 1220.55,759.88 1235.22,771.213 1248.5,784.5C 1249.52,785.002 1249.69,785.668 1249,786.5C 1200.33,835.167 1151.67,883.833 1103,932.5C 1100.67,930.5 1098.33,928.5 1096,926.5C 1095.48,924.711 1095.81,923.044 1097,921.5C 1132.84,864.472 1168.68,807.472 1204.5,750.5 Z"/></g>
<g><path style="opacity:0.8" fill="#fdfdfd" d="M 821.5,764.5 C 862.934,819.843 904.268,875.343 945.5,931C 945,931.5 944.5,932 944,932.5C 894.986,883.653 846.153,834.653 797.5,785.5C 805.545,778.449 813.545,771.449 821.5,764.5 Z"/></g>
<g><path style="opacity:0.8" fill="#fefefe" d="M 784.5,797.5 C 834.25,845.749 883.583,894.582 932.5,944C 923.125,955.076 915.792,967.41 910.5,981C 844.59,961.575 778.59,942.075 712.5,922.5C 712.167,922 711.833,921.5 711.5,921C 727.315,874.496 751.648,833.33 784.5,797.5 Z"/></g>
<g><path style="opacity:0.8" fill="#fefefe" d="M 1260.5,797.5 C 1311.67,850.701 1341.51,914.368 1350,988.5C 1350.78,997.487 1351.28,1006.49 1351.5,1015.5C 1283.5,1015.67 1215.5,1015.5 1147.5,1015C 1189.5,1009.43 1231.5,1003.93 1273.5,998.5C 1267.12,970.988 1260.12,943.655 1252.5,916.5C 1212.17,933.833 1171.83,951.167 1131.5,968.5C 1126.42,959.92 1120.75,951.753 1114.5,944C 1163.37,895.299 1212.03,846.465 1260.5,797.5 Z"/></g>
<g><path style="opacity:0.961" fill="#fed32b" d="M 476.5,869.5 C 463.121,917.189 456.121,965.856 455.5,1015.5C 396.833,1015.5 338.167,1015.5 279.5,1015.5C 279.167,947.163 279.5,878.83 280.5,810.5C 346.038,829.879 411.371,849.546 476.5,869.5 Z"/></g>
<g><path style="opacity:1" fill="#e4bb18" d="M 476.5,869.5 C 482.439,870.594 488.106,872.261 493.5,874.5C 492.25,874.577 491.417,875.244 491,876.5C 478.688,921.993 472.188,968.327 471.5,1015.5C 540.833,1015.5 610.167,1015.5 679.5,1015.5C 679.936,1000.77 681.103,986.107 683,971.5C 685.608,958.512 688.108,945.512 690.5,932.5C 696.643,934.325 702.643,936.325 708.5,938.5C 707.504,938.414 706.671,938.748 706,939.5C 699.786,964.452 696.286,989.786 695.5,1015.5C 765.167,1015.5 834.833,1015.5 904.5,1015.5C 904.407,1009.14 904.74,1002.8 905.5,996.5C 911.643,998.325 917.643,1000.33 923.5,1002.5C 922.25,1002.58 921.417,1003.24 921,1004.5C 920.064,1008.11 919.564,1011.78 919.5,1015.5C 935.009,1015.83 950.342,1015.5 965.5,1014.5C 975.19,1017.34 984.856,1020.34 994.5,1023.5C 984.856,1026.66 975.19,1029.66 965.5,1032.5C 950.676,1031.5 935.676,1031.17 920.5,1031.5C 920.38,1035.04 920.714,1038.54 921.5,1042C 921.684,1043.38 922.351,1044.21 923.5,1044.5C 918.106,1046.74 912.439,1048.41 906.5,1049.5C 905.181,1043.58 904.514,1037.58 904.5,1031.5C 834.833,1031.5 765.167,1031.5 695.5,1031.5C 696.394,1056.87 699.894,1081.87 706,1106.5C 706.417,1107.76 707.25,1108.42 708.5,1108.5C 703.106,1110.74 697.439,1112.41 691.5,1113.5C 684.428,1086.66 680.428,1059.33 679.5,1031.5C 610.167,1031.5 540.833,1031.5 471.5,1031.5C 472.522,1078.68 479.189,1125.01 491.5,1170.5C 491.747,1171.71 492.414,1172.38 493.5,1172.5C 488.106,1174.74 482.439,1176.41 476.5,1177.5C 463.429,1129.74 456.429,1081.07 455.5,1031.5C 396.833,1031.5 338.167,1031.5 279.5,1031.5C 279.5,1026.17 279.5,1020.83 279.5,1015.5C 338.167,1015.5 396.833,1015.5 455.5,1015.5C 456.121,965.856 463.121,917.189 476.5,869.5 Z"/></g>
<g><path style="opacity:0.8" fill="#fcfcfc" d="M 262.5,867.5 C 263.499,916.664 263.832,965.997 263.5,1015.5C 258.167,1015.5 252.833,1015.5 247.5,1015.5C 248.094,965.697 253.094,916.363 262.5,867.5 Z"/></g>
<g><path style="opacity:0.961" fill="#fed32b" d="M 493.5,874.5 C 559.167,893.833 624.833,913.167 690.5,932.5C 688.108,945.512 685.608,958.512 683,971.5C 681.103,986.107 679.936,1000.77 679.5,1015.5C 610.167,1015.5 540.833,1015.5 471.5,1015.5C 472.188,968.327 478.688,921.993 491,876.5C 491.417,875.244 492.25,874.577 493.5,874.5 Z"/></g>
<g><path style="opacity:1" fill="#e2691a" d="M 985.5,905.5 C 987.611,911.606 989.278,917.939 990.5,924.5C 982.38,926.229 975.046,929.562 968.5,934.5C 964.362,930.235 960.695,925.569 957.5,920.5C 966.319,916.26 975.319,912.26 984.5,908.5C 985.386,907.675 985.719,906.675 985.5,905.5 Z"/></g>
<g><path style="opacity:1" fill="#b9e042" d="M 1068.5,911.5 C 1072.75,913.363 1077.09,915.03 1081.5,916.5C 1078.4,921.709 1075.07,926.709 1071.5,931.5C 1069.58,928.86 1066.91,927.193 1063.5,926.5C 1064.72,921.255 1066.39,916.255 1068.5,911.5 Z"/></g>
<g><path style="opacity:0.8" fill="#fdfdfd" d="M 1006.5,919.5 C 1009.5,919.5 1012.5,919.5 1015.5,919.5C 1015.67,931.505 1015.5,943.505 1015,955.5C 1011.85,943.557 1009.01,931.557 1006.5,919.5 Z"/></g>
<g><path style="opacity:0.8" fill="#fdfdfd" d="M 1031.5,919.5 C 1034.85,919.335 1038.18,919.502 1041.5,920C 1044.01,920.115 1046.01,921.115 1047.5,923C 1042.53,938.896 1037.37,954.729 1032,970.5C 1031.5,953.503 1031.33,936.503 1031.5,919.5 Z"/></g>
<g><path style="opacity:0.961" fill="#fb7e2d" d="M 990.5,924.5 C 996.129,944.683 1000.96,965.016 1005,985.5C 992.59,968.603 980.423,951.603 968.5,934.5C 975.046,929.562 982.38,926.229 990.5,924.5 Z"/></g>
<g><path style="opacity:0.961" fill="#cef656" d="M 1063.5,926.5 C 1066.91,927.193 1069.58,928.86 1071.5,931.5C 1065.6,941.639 1059.43,951.639 1053,961.5C 1055.57,949.619 1059.07,937.952 1063.5,926.5 Z"/></g>
<g><path style="opacity:0.961" fill="#fed32b" d="M 708.5,938.5 C 774.167,957.833 839.833,977.167 905.5,996.5C 904.74,1002.8 904.407,1009.14 904.5,1015.5C 834.833,1015.5 765.167,1015.5 695.5,1015.5C 696.286,989.786 699.786,964.452 706,939.5C 706.671,938.748 707.504,938.414 708.5,938.5 Z"/></g>
<g><path style="opacity:0.961" fill="#2d63fd" d="M 1141.5,999.5 C 1140.37,994.112 1139.04,988.779 1137.5,983.5C 1172.14,968.515 1206.81,953.515 1241.5,938.5C 1246.12,953.654 1250.12,968.987 1253.5,984.5C 1216.23,989.894 1178.89,994.894 1141.5,999.5 Z"/></g>
<g><path style="opacity:0.8" fill="#f8f8f8" d="M 1085.5,939.5 C 1087.91,940.398 1089.91,941.898 1091.5,944C 1084.67,950.833 1077.83,957.667 1071,964.5C 1075.26,955.995 1080.1,947.661 1085.5,939.5 Z"/></g>
<g><path style="opacity:0.8" fill="#fcfcfc" d="M 943.5,955.5 C 960.632,972.132 977.632,988.965 994.5,1006C 972.096,999.98 949.762,993.48 927.5,986.5C 927.625,981.616 929.125,976.949 932,972.5C 935.663,966.679 939.497,961.012 943.5,955.5 Z"/></g>
<g><path style="opacity:0.8" fill="#fcfcfc" d="M 1102.5,955.5 C 1107.76,960.943 1112.1,967.11 1115.5,974C 1115.17,974.5 1114.83,975 1114.5,975.5C 1096.66,983.715 1078.66,991.215 1060.5,998C 1074.7,983.965 1088.7,969.799 1102.5,955.5 Z"/></g>
<g><path style="opacity:1" fill="#1c4fe2" d="M 1137.5,983.5 C 1139.04,988.779 1140.37,994.112 1141.5,999.5C 1136.23,1000.34 1130.9,1001.01 1125.5,1001.5C 1124.78,998.178 1123.94,994.845 1123,991.5C 1122.62,990.944 1122.12,990.611 1121.5,990.5C 1126.59,987.796 1131.92,985.463 1137.5,983.5 Z"/></g>
<g><path style="opacity:0.961" fill="#3163f8" d="M 1121.5,990.5 C 1122.12,990.611 1122.62,990.944 1123,991.5C 1123.94,994.845 1124.78,998.178 1125.5,1001.5C 1111.32,1003.78 1096.99,1005.61 1082.5,1007C 1095.4,1001.2 1108.4,995.702 1121.5,990.5 Z"/></g>
<g><path style="opacity:0.961" fill="#fdd22b" d="M 923.5,1002.5 C 937.558,1006.3 951.558,1010.3 965.5,1014.5C 950.342,1015.5 935.009,1015.83 919.5,1015.5C 919.564,1011.78 920.064,1008.11 921,1004.5C 921.417,1003.24 922.25,1002.58 923.5,1002.5 Z"/></g>
<g><path style="opacity:0.8" fill="#fefefe" d="M 23.5,1031.5 C 92.8333,1031.5 162.167,1031.5 231.5,1031.5C 232.595,1103.93 243.095,1174.93 263,1244.5C 263.499,1248.82 263.666,1253.15 263.5,1257.5C 264.833,1257.5 266.167,1257.5 267.5,1257.5C 305.294,1379.82 368.627,1486.49 457.5,1577.5C 408.847,1626.65 360.014,1675.65 311,1724.5C 152.11,1561.36 58.4437,1366.03 30,1138.5C 26.4631,1102.91 24.2964,1067.24 23.5,1031.5 Z"/></g>
<g><path style="opacity:0.8" fill="#fdfdfd" d="M 247.5,1031.5 C 252.833,1031.5 258.167,1031.5 263.5,1031.5C 263.667,1079.83 263.5,1128.17 263,1176.5C 253.602,1128.63 248.436,1080.29 247.5,1031.5 Z"/></g>
<g><path style="opacity:0.961" fill="#fed32b" d="M 279.5,1031.5 C 338.167,1031.5 396.833,1031.5 455.5,1031.5C 456.429,1081.07 463.429,1129.74 476.5,1177.5C 411.371,1197.45 346.038,1217.12 280.5,1236.5C 279.5,1168.17 279.167,1099.84 279.5,1031.5 Z"/></g>
<g><path style="opacity:0.961" fill="#fed32b" d="M 691.5,1113.5 C 625.714,1133.54 559.714,1153.2 493.5,1172.5C 492.414,1172.38 491.747,1171.71 491.5,1170.5C 479.189,1125.01 472.522,1078.68 471.5,1031.5C 540.833,1031.5 610.167,1031.5 679.5,1031.5C 680.428,1059.33 684.428,1086.66 691.5,1113.5 Z"/></g>
<g><path style="opacity:0.961" fill="#fed32b" d="M 906.5,1049.5 C 840.714,1069.54 774.714,1089.2 708.5,1108.5C 707.25,1108.42 706.417,1107.76 706,1106.5C 699.894,1081.87 696.394,1056.87 695.5,1031.5C 765.167,1031.5 834.833,1031.5 904.5,1031.5C 904.514,1037.58 905.181,1043.58 906.5,1049.5 Z"/></g>
<g><path style="opacity:0.961" fill="#fdd22c" d="M 965.5,1032.5 C 951.573,1036.7 937.573,1040.7 923.5,1044.5C 922.351,1044.21 921.684,1043.38 921.5,1042C 920.714,1038.54 920.38,1035.04 920.5,1031.5C 935.676,1031.17 950.676,1031.5 965.5,1032.5 Z"/></g>
<g><path style="opacity:0.8" fill="#fefefe" d="M 1046.5,1032.5 C 1072.99,1031.5 1099.66,1031.17 1126.5,1031.5C 1125.38,1050.36 1119.22,1067.36 1108,1082.5C 1087.92,1065.24 1067.42,1048.58 1046.5,1032.5 Z"/></g>
<g><path style="opacity:0.8" fill="#fefefe" d="M 1142.5,1031.5 C 1212.17,1031.5 1281.83,1031.5 1351.5,1031.5C 1348.99,1103.54 1325.83,1167.87 1282,1224.5C 1228.48,1181.07 1175.15,1137.41 1122,1093.5C 1121.33,1092.5 1121.33,1091.5 1122,1090.5C 1134.3,1072.76 1141.13,1053.1 1142.5,1031.5 Z"/></g>
<g><path style="opacity:0.8" fill="#fefefe" d="M 1367.5,1031.5 C 1436.83,1031.5 1506.17,1031.5 1575.5,1031.5C 1572.31,1156.78 1532.31,1268.44 1455.5,1366.5C 1401.98,1322.48 1348.31,1278.64 1294.5,1235C 1340.7,1175.24 1365.04,1107.41 1367.5,1031.5 Z"/></g>
<g><path style="opacity:0.8" fill="#fefefe" d="M 1591.5,1031.5 C 1660.83,1031.5 1730.17,1031.5 1799.5,1031.5C 1796,1210.19 1739.17,1369.19 1629,1508.5C 1575.04,1465.04 1521.54,1421.04 1468.5,1376.5C 1547.32,1275.39 1588.32,1160.39 1591.5,1031.5 Z"/></g>
<g><path style="opacity:0.8" fill="#fefefe" d="M 1815.5,1031.5 C 1884.83,1031.5 1954.17,1031.5 2023.5,1031.5C 2017.85,1289.97 1928.68,1514.31 1756,1704.5C 1749.33,1711.17 1742.67,1717.83 1736,1724.5C 1715.65,1704.32 1695.49,1683.99 1675.5,1663.5C 1696.65,1641.85 1717.99,1620.35 1739.5,1599C 1706.69,1572.36 1674.02,1545.52 1641.5,1518.5C 1753.76,1376.17 1811.76,1213.83 1815.5,1031.5 Z"/></g>
<g><path style="opacity:0.8" fill="#fefefe" d="M 1009.5,1048.5 C 1010.15,1049.27 1010.48,1050.27 1010.5,1051.5C 1006.31,1075.15 1002.31,1098.81 998.5,1122.5C 982.787,1119.14 968.787,1112.31 956.5,1102C 974.368,1084.3 992.035,1066.47 1009.5,1048.5 Z"/></g>
<g><path style="opacity:0.8" fill="#fdfdfd" d="M 1037.5,1056.5 C 1051.16,1074.18 1064.5,1092.18 1077.5,1110.5C 1068.86,1116.83 1059.19,1120.83 1048.5,1122.5C 1044.83,1100.49 1041.17,1078.49 1037.5,1056.5 Z"/></g>
<g><path style="opacity:0.835" fill="#e6e6e6" d="M 928.5,1059.5 C 929.873,1059.34 931.207,1059.51 932.5,1060C 930.919,1060.71 929.419,1061.54 928,1062.5C 927.53,1061.42 927.697,1060.42 928.5,1059.5 Z"/></g>
<g><path style="opacity:0.8" fill="#fdfdfd" d="M 908.5,1065.5 C 912.252,1065.5 913.252,1067.17 911.5,1070.5C 850.167,1101.17 788.833,1131.83 727.5,1162.5C 721.395,1150.61 716.061,1138.28 711.5,1125.5C 711.833,1125.17 712.167,1124.83 712.5,1124.5C 778.158,1105.32 843.491,1085.65 908.5,1065.5 Z"/></g>
<g><path style="opacity:1" fill="#e46918" d="M 1150.5,1138.5 C 1187.06,1175.56 1223.89,1212.56 1261,1249.5C 1264.34,1245.33 1267.84,1241.33 1271.5,1237.5C 1276.02,1240.59 1280.36,1243.93 1284.5,1247.5C 1280.9,1251.6 1277.06,1255.6 1273,1259.5C 1272.33,1260.17 1272.33,1260.83 1273,1261.5C 1321.5,1310 1370,1358.5 1418.5,1407C 1419.17,1407.67 1419.83,1407.67 1420.5,1407C 1429.49,1398.19 1437.49,1388.69 1444.5,1378.5C 1449.15,1381.82 1453.49,1385.49 1457.5,1389.5C 1449.24,1398.99 1440.74,1408.32 1432,1417.5C 1431.33,1418.5 1431.33,1419.5 1432,1420.5C 1480.67,1469.17 1529.33,1517.83 1578,1566.5C 1591.71,1551.63 1605.21,1536.63 1618.5,1521.5C 1623.38,1524.11 1627.72,1527.44 1631.5,1531.5C 1617.92,1547.09 1603.92,1562.42 1589.5,1577.5C 1613.85,1602.52 1638.52,1627.19 1663.5,1651.5C 1659.83,1655.83 1655.83,1659.83 1651.5,1663.5C 1627.19,1638.52 1602.52,1613.85 1577.5,1589.5C 1554.14,1612.32 1529.47,1633.49 1503.5,1653C 1502.18,1653.82 1501.51,1654.98 1501.5,1656.5C 1497.6,1651.72 1493.93,1646.72 1490.5,1641.5C 1491.55,1641.65 1492.55,1641.48 1493.5,1641C 1519.01,1621.5 1543.35,1600.5 1566.5,1578C 1517.83,1529.33 1469.17,1480.67 1420.5,1432C 1419.5,1431.33 1418.5,1431.33 1417.5,1432C 1401.82,1447.53 1385.16,1461.69 1367.5,1474.5C 1363.45,1470.75 1360.12,1466.41 1357.5,1461.5C 1375.14,1449.4 1391.64,1435.73 1407,1420.5C 1407.67,1419.83 1407.67,1419.17 1407,1418.5C 1358.5,1370 1310,1321.5 1261.5,1273C 1260.83,1272.33 1260.17,1272.33 1259.5,1273C 1251.59,1280.75 1243.26,1287.92 1234.5,1294.5C 1230.45,1290.75 1227.12,1286.41 1224.5,1281.5C 1233.51,1275.64 1241.84,1268.81 1249.5,1261C 1200.3,1211.3 1150.97,1162.46 1101.5,1114.5C 1089.98,1100.75 1079.48,1086.41 1070,1071.5C 1097.02,1093.7 1123.86,1116.03 1150.5,1138.5 Z"/></g>
<g><path style="opacity:1" fill="#77e377" d="M 1035.5,1141.5 C 1034.17,1141.5 1032.83,1141.5 1031.5,1141.5C 1031.5,1211.17 1031.5,1280.83 1031.5,1350.5C 1041.2,1350.59 1050.86,1350.09 1060.5,1349C 1064.09,1348.69 1067.42,1347.86 1070.5,1346.5C 1071.94,1351.96 1072.94,1357.63 1073.5,1363.5C 1059.62,1365.94 1045.62,1366.94 1031.5,1366.5C 1031.5,1436.17 1031.5,1505.83 1031.5,1575.5C 1000.17,1575.5 968.833,1575.5 937.5,1575.5C 937.194,1572.61 937.527,1569.95 938.5,1567.5C 942.707,1569.47 947.374,1570.64 952.5,1571C 962.873,1571.59 973.206,1572.59 983.5,1574C 994.161,1574.5 1004.83,1574.67 1015.5,1574.5C 1015.5,1505.17 1015.5,1435.83 1015.5,1366.5C 1001.42,1366.46 987.42,1365.46 973.5,1363.5C 974.059,1357.63 975.059,1351.96 976.5,1346.5C 978.305,1348.2 980.639,1349.03 983.5,1349C 994.146,1349.98 1004.81,1350.48 1015.5,1350.5C 1015.5,1280.83 1015.5,1211.17 1015.5,1141.5C 1014.17,1141.5 1012.83,1141.5 1011.5,1141.5C 1015.04,1118.73 1019.04,1096.07 1023.5,1073.5C 1027.96,1096.07 1031.96,1118.73 1035.5,1141.5 Z"/></g>
<g><path style="opacity:0.961" fill="#2c62fd" d="M 754.5,1212.5 C 747.58,1201 740.914,1189.33 734.5,1177.5C 802.818,1142.51 871.485,1108.34 940.5,1075C 878.622,1121.05 816.622,1166.88 754.5,1212.5 Z"/></g>
<g><path style="opacity:0.8" fill="#fdfdfd" d="M 930.5,1101.5 C 931.552,1101.35 932.552,1101.52 933.5,1102C 884.333,1151.17 835.167,1200.33 786,1249.5C 778.96,1242.13 772.294,1234.46 766,1226.5C 765.251,1225.36 765.417,1224.36 766.5,1223.5C 821.491,1183.16 876.158,1142.5 930.5,1101.5 Z"/></g>
<g><path style="opacity:0.961" fill="#fe7e2b" d="M 1224.5,1281.5 C 1183.12,1226.12 1142.12,1170.45 1101.5,1114.5C 1150.97,1162.46 1200.3,1211.3 1249.5,1261C 1241.84,1268.81 1233.51,1275.64 1224.5,1281.5 Z"/></g>
<g><path style="opacity:0.8" fill="#fefefe" d="M 944.5,1113.5 C 954.277,1121.23 964.944,1127.73 976.5,1133C 982.591,1135.75 988.924,1137.59 995.5,1138.5C 983.401,1207.09 971.734,1275.76 960.5,1344.5C 897.817,1332.49 843.484,1304.66 797.5,1261C 846.701,1211.97 895.701,1162.8 944.5,1113.5 Z"/></g>
<g><path style="opacity:0.8" fill="#fefefe" d="M 1085.5,1124.5 C 1087.39,1124.3 1088.89,1124.96 1090,1126.5C 1130.31,1181.64 1170.81,1236.64 1211.5,1291.5C 1173.84,1318.29 1132.17,1335.95 1086.5,1344.5C 1075.37,1276.07 1063.71,1207.74 1051.5,1139.5C 1063.65,1136.09 1074.98,1131.09 1085.5,1124.5 Z"/></g>
<g><path style="opacity:0.8" fill="#fefefe" d="M 693.5,1129.5 C 695.124,1129.36 696.29,1130.03 697,1131.5C 701.296,1144.56 706.463,1157.23 712.5,1169.5C 673.5,1189.33 634.5,1209.17 595.5,1229C 614.878,1254.92 634.378,1280.76 654,1306.5C 686.641,1282.69 719.141,1258.69 751.5,1234.5C 759.138,1243.14 766.805,1251.81 774.5,1260.5C 725.833,1309.83 676.833,1358.83 627.5,1407.5C 566.985,1345.7 523.652,1273.2 497.5,1190C 497.645,1189.23 497.978,1188.56 498.5,1188C 563.756,1168.94 628.756,1149.44 693.5,1129.5 Z"/></g>
<g><path style="opacity:0.961" fill="#8dfd8d" d="M 1011.5,1141.5 C 1012.83,1141.5 1014.17,1141.5 1015.5,1141.5C 1015.5,1211.17 1015.5,1280.83 1015.5,1350.5C 1004.81,1350.48 994.146,1349.98 983.5,1349C 980.639,1349.03 978.305,1348.2 976.5,1346.5C 987.703,1278.08 999.369,1209.75 1011.5,1141.5 Z"/></g>
<g><path style="opacity:0.961" fill="#8dfd8d" d="M 1035.5,1141.5 C 1047.63,1209.75 1059.3,1278.08 1070.5,1346.5C 1067.42,1347.86 1064.09,1348.69 1060.5,1349C 1050.86,1350.09 1041.2,1350.59 1031.5,1350.5C 1031.5,1280.83 1031.5,1211.17 1031.5,1141.5C 1032.83,1141.5 1034.17,1141.5 1035.5,1141.5 Z"/></g>
<g><path style="opacity:0.961" fill="#fd7e2c" d="M 1150.5,1138.5 C 1191.13,1171.13 1231.46,1204.13 1271.5,1237.5C 1267.84,1241.33 1264.34,1245.33 1261,1249.5C 1223.89,1212.56 1187.06,1175.56 1150.5,1138.5 Z"/></g>
<g><path style="opacity:1" fill="#184ee3" d="M 734.5,1177.5 C 740.914,1189.33 747.58,1201 754.5,1212.5C 750.754,1215.58 746.754,1218.25 742.5,1220.5C 733.849,1209.21 726.182,1197.21 719.5,1184.5C 724.375,1181.9 729.375,1179.56 734.5,1177.5 Z"/></g>
<g><path style="opacity:0.961" fill="#2b63fe" d="M 719.5,1184.5 C 726.182,1197.21 733.849,1209.21 742.5,1220.5C 714.491,1241.83 686.157,1262.83 657.5,1283.5C 644.861,1268.23 632.694,1252.57 621,1236.5C 620.251,1235.36 620.417,1234.36 621.5,1233.5C 654.193,1217.15 686.86,1200.82 719.5,1184.5 Z"/></g>
<g><path style="opacity:0.8" fill="#fefefe" d="M 478.5,1193.5 C 479.822,1193.33 480.989,1193.66 482,1194.5C 509.549,1279.82 554.049,1354.65 615.5,1419C 567.333,1468.5 518.5,1517.33 469,1565.5C 381.866,1476.65 319.699,1372.32 282.5,1252.5C 348.089,1233.35 413.422,1213.69 478.5,1193.5 Z"/></g>
<g><path style="opacity:0.961" fill="#fe7e2b" d="M 1284.5,1247.5 C 1337.86,1291.2 1391.19,1334.86 1444.5,1378.5C 1437.49,1388.69 1429.49,1398.19 1420.5,1407C 1419.83,1407.67 1419.17,1407.67 1418.5,1407C 1370,1358.5 1321.5,1310 1273,1261.5C 1272.33,1260.83 1272.33,1260.17 1273,1259.5C 1277.06,1255.6 1280.9,1251.6 1284.5,1247.5 Z"/></g>
<g><path style="opacity:0.961" fill="#fe7e2b" d="M 1357.5,1461.5 C 1316.12,1406.12 1275.12,1350.45 1234.5,1294.5C 1243.26,1287.92 1251.59,1280.75 1259.5,1273C 1260.17,1272.33 1260.83,1272.33 1261.5,1273C 1310,1321.5 1358.5,1370 1407,1418.5C 1407.67,1419.17 1407.67,1419.83 1407,1420.5C 1391.64,1435.73 1375.14,1449.4 1357.5,1461.5 Z"/></g>
<g><path style="opacity:0.8" fill="#fefefe" d="M 785.5,1272.5 C 834.458,1317.66 891.792,1347.33 957.5,1361.5C 945.402,1429.42 933.735,1497.42 922.5,1565.5C 813.141,1544.99 718.808,1496.33 639.5,1419.5C 688.188,1370.48 736.854,1321.48 785.5,1272.5 Z"/></g>
<g><path style="opacity:0.8" fill="#fefefe" d="M 1220.5,1304.5 C 1262.06,1359.92 1303.39,1415.59 1344.5,1471.5C 1278.64,1519.7 1205.31,1551.03 1124.5,1565.5C 1113.16,1497.11 1101.49,1428.78 1089.5,1360.5C 1137.5,1351.32 1181.16,1332.65 1220.5,1304.5 Z"/></g>
<g><path style="opacity:0.961" fill="#8dfe8d" d="M 973.5,1363.5 C 987.42,1365.46 1001.42,1366.46 1015.5,1366.5C 1015.5,1435.83 1015.5,1505.17 1015.5,1574.5C 1004.83,1574.67 994.161,1574.5 983.5,1574C 973.206,1572.59 962.873,1571.59 952.5,1571C 947.374,1570.64 942.707,1569.47 938.5,1567.5C 949.539,1499.26 961.206,1431.26 973.5,1363.5 Z"/></g>
<g><path style="opacity:0.961" fill="#8dfe8d" d="M 1073.5,1363.5 C 1085.79,1431.26 1097.46,1499.26 1108.5,1567.5C 1108.08,1568.22 1107.42,1568.72 1106.5,1569C 1085.46,1572.22 1064.46,1574.39 1043.5,1575.5C 1039.5,1575.5 1035.5,1575.5 1031.5,1575.5C 1031.5,1505.83 1031.5,1436.17 1031.5,1366.5C 1045.62,1366.94 1059.62,1365.94 1073.5,1363.5 Z"/></g>
<g><path style="opacity:0.961" fill="#fe7e2b" d="M 1457.5,1389.5 C 1511.77,1432.77 1565.44,1476.77 1618.5,1521.5C 1605.21,1536.63 1591.71,1551.63 1578,1566.5C 1529.33,1517.83 1480.67,1469.17 1432,1420.5C 1431.33,1419.5 1431.33,1418.5 1432,1417.5C 1440.74,1408.32 1449.24,1398.99 1457.5,1389.5 Z"/></g>
<g><path style="opacity:0.8" fill="#fefefe" d="M 627.5,1430.5 C 709.373,1509.78 806.707,1560.11 919.5,1581.5C 918.793,1584.79 918.46,1588.12 918.5,1591.5C 950.833,1591.5 983.167,1591.5 1015.5,1591.5C 1015.5,1660.83 1015.5,1730.17 1015.5,1799.5C 807.989,1794.36 629.656,1720.53 480.5,1578C 529.701,1528.97 578.701,1479.8 627.5,1430.5 Z"/></g>
<g><path style="opacity:0.961" fill="#fe7e2b" d="M 1490.5,1641.5 C 1449.12,1586.12 1408.12,1530.45 1367.5,1474.5C 1385.16,1461.69 1401.82,1447.53 1417.5,1432C 1418.5,1431.33 1419.5,1431.33 1420.5,1432C 1469.17,1480.67 1517.83,1529.33 1566.5,1578C 1543.35,1600.5 1519.01,1621.5 1493.5,1641C 1492.55,1641.48 1491.55,1641.65 1490.5,1641.5 Z"/></g>
<g><path style="opacity:0.8" fill="#fefefe" d="M 1352.5,1485.5 C 1353.82,1485.33 1354.99,1485.66 1356,1486.5C 1396.31,1541.64 1436.81,1596.64 1477.5,1651.5C 1411.09,1700.71 1338.09,1737.88 1258.5,1763C 1184.65,1786.31 1108.99,1798.14 1031.5,1798.5C 1031.5,1729.5 1031.5,1660.5 1031.5,1591.5C 1063.83,1591.5 1096.17,1591.5 1128.5,1591.5C 1128.54,1588.12 1128.21,1584.79 1127.5,1581.5C 1198.84,1568.33 1265.18,1542.5 1326.5,1504C 1335.41,1498.06 1344.08,1491.89 1352.5,1485.5 Z"/></g>
<g><path style="opacity:0.961" fill="#fe7e2b" d="M 1631.5,1531.5 C 1659.34,1554.5 1687.34,1577.33 1715.5,1600C 1698.3,1617.37 1680.97,1634.54 1663.5,1651.5C 1638.52,1627.19 1613.85,1602.52 1589.5,1577.5C 1603.92,1562.42 1617.92,1547.09 1631.5,1531.5 Z"/></g>
<g><path style="opacity:1" fill="#77e377" d="M 1108.5,1567.5 C 1109.47,1569.95 1109.81,1572.61 1109.5,1575.5C 1087.5,1575.5 1065.5,1575.5 1043.5,1575.5C 1064.46,1574.39 1085.46,1572.22 1106.5,1569C 1107.42,1568.72 1108.08,1568.22 1108.5,1567.5 Z"/></g>
<g><path style="opacity:0.961" fill="#fe7e2b" d="M 1651.5,1663.5 C 1624.19,1691.48 1596.52,1719.15 1568.5,1746.5C 1545.68,1716.87 1523.35,1686.87 1501.5,1656.5C 1501.51,1654.98 1502.18,1653.82 1503.5,1653C 1529.47,1633.49 1554.14,1612.32 1577.5,1589.5C 1602.52,1613.85 1627.19,1638.52 1651.5,1663.5 Z"/></g>
<g><path style="opacity:0.8" fill="#fefefe" d="M 468.5,1589.5 C 621.1,1734.91 803.433,1810.25 1015.5,1815.5C 1015.5,1884.83 1015.5,1954.17 1015.5,2023.5C 767.049,2018.66 549.382,1935.5 362.5,1774C 348.784,1761.8 335.451,1749.13 322.5,1736C 371.368,1687.3 420.035,1638.47 468.5,1589.5 Z"/></g>
<g><path style="opacity:0.8" fill="#fefefe" d="M 1486.5,1665.5 C 1487.5,1665.41 1488.33,1665.75 1489,1666.5C 1514.64,1701.64 1540.47,1736.64 1566.5,1771.5C 1598.65,1739.85 1630.65,1708.01 1662.5,1676C 1663.17,1675.33 1663.83,1675.33 1664.5,1676C 1684.5,1696 1704.5,1716 1724.5,1736C 1558.35,1897.59 1359.35,1991.59 1127.5,2018C 1095.58,2021.23 1063.58,2023.06 1031.5,2023.5C 1031.5,1954.17 1031.5,1884.83 1031.5,1815.5C 1199.19,1812.6 1350.86,1762.6 1486.5,1665.5 Z"/></g>
</svg>
